<?xml version="1.0" standalone="no"?>
<svg version="1.0" xmlns="http://www.w3.org/2000/svg"
 width="3508" height="2480" viewBox="0 0 3508 2480"
 preserveAspectRatio="xMidYMid meet">
<g transform="translate(0,2480) scale(0.1,-0.1)">
<path fill="#000000" stroke="none" d="M6156 14788 c-64 -103 -2736 -4680 -2736 -4688 0 -6 12 -34 26 -62
l26 -51 18 29 c38 61 2800 4786 2800 4790 0 2 -27 4 -60 4 -51 0 -62 -3 -74
-22z M4940 12374 c-784 -1340 -1426 -2442 -1428 -2449 -3 -14 97 -195 108
-195 4 0 2960 5049 2968 5071 2 5 -46 9 -110 9 l-113 0 -1425 -2436z M5190
12288 c-811 -1386 -1488 -2544 -1504 -2573 l-29 -52 71 -104 c40 -57 80 -115
91 -128 l18 -24 16 24 c8 13 711 1214 1562 2669 851 1455 1556 2660 1567 2678
l20 32 -169 0 -168 0 -1475 -2522z M7002 14693 c-213 -362 -3101 -5302 -3111
-5321 -11 -21 -5 -32 83 -135 53 -62 115 -134 139 -160 l44 -48 1591 2721
1592 2721 0 170 0 169 -135 0 -134 0 -69 -117z M18145 14360 c-282 -44 -505
-212 -641 -482 -89 -176 -120 -345 -111 -600 6 -180 28 -289 86 -430 90 -214
269 -396 474 -478 219 -88 535 -76 740 26 177 89 336 262 418 456 58 136 80
246 86 429 8 240 -20 401 -97 566 -120 256 -320 428 -575 493 -92 24 -287 34
-380 20z m316 -329 c167 -63 273 -209 324 -446 26 -119 24 -378 -3 -506 -51
-243 -184 -407 -363 -448 -24 -6 -83 -11 -130 -11 -201 0 -330 85 -419 275
-67 142 -75 191 -75 445 0 255 8 302 75 447 65 140 177 235 310 263 71 15 217
5 281 -19z M6752 13345 l-582 -995 0 -1115 0 -1115 585 0 585 0 0 2110 c0
1161 -1 2110 -3 2110 -2 0 -265 -448 -585 -995z M12161 14318 c-4 -13 -142
-406 -306 -875 l-298 -851 -68 -7 -69 -7 0 -119 0 -119 335 0 335 0 0 119 0
120 -53 6 c-30 4 -60 10 -66 15 -10 6 -3 40 30 144 l42 136 328 0 328 0 43
-137 c50 -156 52 -146 -42 -159 l-50 -7 0 -118 0 -119 340 0 341 0 -3 117 -3
118 -67 10 c-37 5 -69 13 -72 16 -5 5 -606 1726 -606 1735 0 2 -92 4 -205 4
-204 0 -206 0 -214 -22z m239 -504 c11 -37 61 -193 110 -348 50 -155 90 -285
90 -289 0 -4 -104 -7 -231 -7 -180 0 -230 3 -227 13 2 6 53 166 113 355 60
188 113 342 117 342 4 0 16 -30 28 -66z M13360 14220 c0 -66 2 -120 4 -120 4
0 142 -27 184 -36 l22 -4 0 -553 c0 -313 5 -582 10 -621 41 -282 215 -462 528
-548 65 -18 105 -22 257 -22 155 -1 193 3 270 22 277 69 470 250 520 489 12
55 15 181 15 651 0 320 2 582 4 582 3 0 35 6 73 14 37 8 85 17 106 20 l37 7 0
119 0 120 -415 0 -415 0 0 -119 0 -118 63 -13 c34 -6 83 -16 110 -22 l47 -10
0 -546 c0 -658 -3 -679 -97 -783 -94 -104 -300 -145 -468 -95 -71 22 -143 74
-181 130 -63 96 -64 108 -64 733 l0 563 23 4 c41 9 179 36 183 36 2 0 4 54 4
120 l0 120 -410 0 -410 0 0 -120z M15490 14075 l0 -265 149 0 c166 0 161 -2
161 73 0 23 3 66 6 95 l7 52 183 0 184 0 0 -708 0 -709 -105 -18 -105 -18 0
-118 0 -119 415 0 416 0 -3 117 -3 117 -105 21 -105 21 -3 707 -2 707 190 0
190 0 0 -42 c0 -24 3 -73 7 -110 l6 -68 153 0 154 0 0 265 0 265 -895 0 -895
0 0 -265z M31400 13331 l0 -59 50 -7 50 -7 0 -454 0 -455 83 3 82 3 3 38 c4
44 10 46 43 11 60 -66 181 -84 275 -40 106 49 156 157 157 336 1 245 -97 380
-276 380 -57 0 -112 -21 -149 -57 l-28 -27 0 197 0 197 -145 0 -145 0 0 -59z
m488 -418 c44 -27 66 -97 66 -208 1 -87 -2 -106 -24 -150 -21 -42 -32 -52 -67
-63 -48 -16 -104 -5 -147 29 l-26 20 0 164 c0 184 3 194 75 220 44 16 87 11
123 -12z M29578 13315 c-142 -39 -255 -166 -294 -332 -23 -96 -15 -287 15
-363 50 -130 148 -223 274 -262 58 -17 86 -20 175 -15 121 6 183 22 262 69
l55 33 3 193 2 192 -160 0 -161 0 3 -67 3 -68 63 -3 62 -3 0 -89 0 -88 -37
-14 c-21 -7 -72 -13 -113 -13 -180 1 -270 117 -270 347 0 166 52 277 154 330
91 48 277 17 292 -49 3 -15 10 -45 15 -65 l10 -38 69 0 70 0 0 94 c0 93 0 94
-31 121 -46 38 -120 73 -191 90 -76 18 -206 18 -270 0z M32240 13261 l0 -59
50 -7 50 -7 0 -353 0 -353 -50 -7 -50 -7 0 -59 0 -59 195 0 195 0 0 59 0 59
-50 7 -50 7 0 139 0 139 200 0 200 0 0 -139 0 -139 -50 -7 -50 -7 0 -59 0 -59
195 0 195 0 0 59 0 59 -50 7 -50 7 0 353 0 353 50 7 50 7 0 59 0 59 -195 0
-195 0 0 -59 0 -59 50 -7 50 -7 0 -144 0 -144 -200 0 -200 0 0 144 0 144 50 7
50 7 0 59 0 59 -195 0 -195 0 0 -59z M30541 13054 c-28 -15 -59 -37 -68 -51
-19 -29 -33 -15 -33 35 l0 32 -140 0 -140 0 0 -59 0 -58 50 -7 50 -7 0 -229 0
-229 -45 -7 -45 -6 0 -59 0 -59 185 0 186 0 -3 57 -3 58 -42 9 -43 9 0 197 c0
195 0 197 24 219 37 35 100 46 145 24 56 -28 61 -46 61 -255 l0 -186 -37 -9
c-38 -9 -38 -9 -41 -66 l-3 -57 176 0 175 0 0 59 0 59 -40 7 -40 7 0 194 c0
192 0 195 24 219 36 36 97 49 141 31 57 -24 65 -56 65 -265 l0 -179 -40 -7
-40 -7 0 -59 0 -59 185 0 186 0 -3 57 -3 58 -47 8 -46 9 -4 211 c-3 210 -3
213 -31 270 -40 80 -87 110 -178 115 -60 4 -77 0 -124 -23 -33 -16 -65 -41
-79 -61 l-23 -34 -24 38 c-53 82 -184 108 -288 56z M11046 11803 c-11 -130
-51 -356 -92 -516 -155 -604 -459 -1150 -889 -1595 l-113 -117 -327 -560
c-180 -308 -330 -564 -333 -570 -8 -13 31 12 158 103 224 161 445 354 613 537
652 709 1023 1572 1087 2530 5 83 10 158 10 168 0 16 532 17 11030 17 l11030
0 0 45 0 45 -11084 0 -11083 0 -7 -87z M12483 11409 c-78 -23 -123 -106 -123
-223 l0 -56 -50 0 -50 0 0 -40 0 -40 50 0 50 0 -2 -232 c-3 -224 -4 -233 -23
-236 -62 -9 -65 -11 -65 -47 l0 -35 150 0 150 0 0 35 c0 32 -3 35 -37 40 -21
4 -44 8 -50 10 -10 3 -13 59 -13 235 l0 230 65 0 65 0 0 40 0 40 -65 0 -65 0
0 55 c0 106 38 151 122 143 35 -3 36 -2 42 36 4 21 5 41 2 43 -10 10 -123 12
-153 2z M16240 11350 l0 -60 55 0 55 0 0 60 0 60 -55 0 -55 0 0 -60z M18660
11375 c0 -38 3 -40 63 -50 l37 -6 0 -409 0 -410 45 0 c43 0 44 1 51 35 6 36
21 46 30 20 11 -28 104 -65 163 -65 99 1 168 48 213 145 20 43 23 66 23 165 0
145 -18 202 -84 270 -83 86 -210 94 -296 18 l-35 -30 0 176 0 176 -105 0 -105
0 0 -35z m456 -368 c84 -91 86 -313 5 -391 -55 -52 -159 -47 -216 10 l-35 35
0 152 c0 143 1 154 23 179 35 44 75 60 136 55 47 -3 59 -9 87 -40z M21080
11350 l0 -60 55 0 55 0 0 60 0 60 -55 0 -55 0 0 -60z M21960 11375 c0 -38 3
-40 63 -50 l37 -6 0 -409 0 -410 44 0 c47 0 56 9 56 58 l0 26 33 -32 c43 -42
95 -62 159 -62 96 1 166 49 210 145 20 44 23 66 23 170 0 100 -4 129 -23 176
-37 92 -101 145 -190 156 -62 7 -124 -11 -167 -48 l-35 -31 0 176 0 176 -105
0 -105 0 0 -35z m446 -356 c46 -43 66 -96 72 -189 5 -104 -8 -160 -51 -206
-55 -61 -161 -60 -222 2 l-35 35 0 152 0 153 32 33 c43 44 63 51 126 48 38 -3
59 -10 78 -28z M25420 11375 c0 -38 3 -40 63 -50 l37 -6 0 -365 c0 -283 -3
-366 -12 -369 -7 -2 -30 -6 -50 -10 -35 -5 -38 -8 -38 -40 l0 -35 150 0 150 0
0 34 c0 33 -2 35 -42 43 l-43 9 -3 193 c-3 217 -3 215 70 252 74 38 162 18
195 -44 24 -43 33 -394 11 -401 -7 -3 -30 -7 -50 -11 -35 -5 -38 -8 -38 -40
l0 -35 150 0 150 0 0 34 c0 35 -15 46 -66 46 -21 0 -22 4 -26 198 -6 242 -19
284 -100 331 -79 47 -190 36 -259 -26 l-39 -35 0 181 0 181 -105 0 -105 0 0
-35z M29350 11376 c0 -36 2 -38 68 -51 l32 -7 0 -364 c0 -283 -3 -366 -12
-369 -7 -2 -30 -6 -50 -10 -35 -5 -38 -8 -38 -40 l0 -35 150 0 150 0 0 35 c0
36 -3 38 -65 47 -19 3 -20 12 -23 192 -3 214 -1 220 71 255 86 42 178 15 204
-59 17 -50 17 -379 1 -385 -7 -2 -30 -6 -50 -10 -35 -5 -38 -8 -38 -40 l0 -35
150 0 150 0 0 35 c0 36 -3 38 -65 47 -19 3 -20 13 -25 203 -5 175 -8 206 -26
246 -55 120 -224 146 -334 52 l-40 -35 0 181 0 181 -105 0 -105 0 0 -34z
M31892 11373 c2 -29 8 -39 23 -41 70 -10 65 0 65 -137 l0 -124 -50 31 c-86 53
-188 49 -262 -12 -107 -88 -138 -331 -63 -480 64 -127 234 -161 347 -70 34 28
38 29 38 11 0 -48 7 -51 106 -51 l94 0 0 35 c0 32 -3 35 -37 40 -21 4 -44 8
-50 10 -10 4 -13 95 -13 415 l0 410 -101 0 -100 0 3 -37z m12 -337 c18 -7 42
-26 54 -41 20 -26 22 -39 22 -180 0 -139 -2 -155 -21 -179 -46 -58 -143 -75
-207 -36 -82 50 -106 249 -44 369 37 72 118 100 196 67z M32912 11373 c2 -29
8 -39 23 -41 11 -1 30 -5 43 -8 l22 -4 -2 -368 c-3 -358 -3 -367 -23 -370 -62
-9 -65 -11 -65 -47 l0 -35 150 0 150 0 0 35 c0 32 -3 35 -37 40 -21 4 -44 8
-50 10 -10 4 -13 95 -13 415 l0 410 -101 0 -100 0 3 -37z M23201 11345 c-61
-19 -99 -59 -118 -124 -20 -70 -7 -136 43 -210 l36 -53 -24 -16 c-101 -71
-143 -142 -136 -232 6 -81 45 -143 118 -184 51 -29 62 -31 150 -31 86 0 101 3
162 32 l67 31 23 -29 c22 -29 26 -30 87 -27 l64 3 -52 62 -51 63 24 38 c29 46
51 110 60 175 l7 47 -49 0 -50 0 -7 -47 c-4 -27 -15 -68 -26 -92 -17 -39 -21
-43 -33 -30 -33 34 -186 221 -186 227 0 4 28 27 61 51 133 96 156 217 59 305
-61 55 -139 69 -229 41z m160 -104 c33 -33 38 -75 15 -120 -13 -25 -110 -101
-128 -101 -11 0 -55 82 -62 116 -8 36 7 80 36 112 33 34 101 31 139 -7z m69
-610 c0 -4 -23 -18 -51 -32 -37 -17 -68 -24 -109 -23 -69 1 -110 23 -139 74
-39 70 -22 140 48 203 l42 38 105 -126 c57 -69 104 -129 104 -134z M11420
11310 c0 -35 3 -40 23 -40 12 0 32 -3 45 -6 l22 -6 -2 -337 c-3 -327 -4 -336
-23 -339 -62 -9 -65 -11 -65 -47 l0 -35 150 0 150 0 0 35 c0 32 -3 35 -37 40
-21 4 -44 8 -50 10 -10 3 -13 42 -13 150 l0 145 53 0 53 0 118 -146 c119 -147
127 -163 74 -164 -14 0 -18 -8 -18 -35 l0 -35 140 0 140 0 0 35 c0 33 -2 35
-40 41 -38 6 -49 18 -184 184 l-143 177 119 149 c137 172 150 184 189 184 27
0 29 3 29 40 l0 40 -131 0 -130 0 3 -37 c3 -33 7 -39 31 -43 27 -5 26 -7 -90
-152 l-118 -147 -47 0 -48 -1 0 145 0 144 38 6 c59 10 62 12 62 50 l0 35 -150
0 -150 0 0 -40z M14382 11313 c3 -35 5 -38 46 -46 l42 -8 -2 -337 -3 -336 -42
-9 c-41 -8 -43 -10 -43 -43 l0 -34 150 0 150 0 0 35 c0 32 -3 35 -37 40 -21 4
-44 8 -50 10 -10 3 -13 59 -13 232 0 125 -3 260 -6 298 -4 45 -3 66 3 60 5 -5
70 -160 144 -342 l133 -333 37 0 36 0 132 328 c72 180 136 334 142 342 8 11 9
-12 5 -79 -3 -52 -6 -186 -6 -298 0 -154 -3 -205 -12 -208 -7 -2 -30 -6 -50
-10 -35 -5 -38 -8 -38 -40 l0 -35 150 0 150 0 0 34 c0 33 -2 35 -42 43 l-43 9
-3 336 -2 336 22 6 c13 3 33 6 46 6 19 0 22 5 22 40 l0 40 -117 0 -118 0 -134
-345 c-74 -190 -137 -345 -140 -345 -3 0 -67 155 -141 345 l-135 345 -118 0
-118 0 3 -37z M24050 11310 c0 -35 3 -40 23 -40 12 0 32 -3 45 -6 l22 -6 -2
-337 c-3 -327 -4 -336 -23 -339 -62 -9 -65 -11 -65 -47 l0 -35 150 0 150 0 0
35 c0 32 -3 35 -37 40 -21 4 -44 8 -50 10 -10 3 -13 42 -13 150 l0 145 165 0
165 0 0 40 0 40 -165 0 -165 0 0 150 0 150 175 0 175 0 0 -55 0 -55 50 0 50 0
0 100 0 100 -325 0 -325 0 0 -40z M17230 11205 l0 -75 -50 0 -50 0 0 -40 0
-40 49 0 50 0 3 -233 c3 -257 5 -267 71 -308 26 -17 44 -19 100 -16 38 2 72 8
77 13 4 5 6 24 3 42 -5 31 -7 32 -54 32 -36 0 -54 5 -69 20 -19 19 -20 33 -20
235 l0 215 60 0 60 0 0 40 0 40 -60 0 -60 0 0 75 0 75 -55 0 -55 0 0 -75z
M20140 11205 l0 -75 -50 0 -50 0 0 -40 0 -40 50 0 50 0 0 -222 c0 -256 8 -291
73 -321 40 -19 109 -22 154 -6 27 9 30 13 24 42 -6 30 -10 32 -60 37 -81 9
-81 9 -81 257 l0 213 60 0 60 0 0 40 0 40 -60 0 -60 0 0 75 0 75 -55 0 -55 0
0 -75z M15683 11124 c-57 -21 -119 -84 -151 -152 -24 -50 -27 -69 -27 -162 0
-118 16 -166 75 -234 46 -52 102 -78 182 -84 78 -5 145 9 205 44 l42 24 -20
35 c-12 19 -23 35 -24 35 -2 0 -19 -9 -37 -19 -45 -27 -124 -43 -170 -36 -71
12 -128 82 -142 173 l-6 42 205 0 205 0 0 74 c0 120 -42 206 -121 247 -54 27
-160 34 -216 13z m157 -87 c39 -20 70 -74 70 -123 l0 -44 -145 0 c-144 0 -145
0 -145 23 1 36 35 101 69 130 25 21 43 27 79 27 26 0 58 -6 72 -13z M16694
11127 c-93 -31 -152 -111 -140 -189 13 -82 74 -126 220 -162 115 -28 146 -52
146 -114 0 -63 -89 -102 -186 -82 -59 12 -68 20 -81 70 -8 32 -12 35 -51 38
l-42 3 0 -71 0 -71 56 -26 c66 -30 195 -42 260 -24 54 15 103 48 132 91 20 29
23 44 20 93 -3 46 -10 63 -33 87 -36 37 -97 66 -183 86 -92 21 -128 40 -142
75 -16 38 2 84 41 104 38 20 120 19 164 -2 29 -14 38 -25 47 -60 10 -42 12
-43 50 -43 l39 0 -3 73 -3 72 -57 28 c-68 35 -187 45 -254 24z M17771 11128
c-52 -18 -135 -100 -162 -160 -18 -43 -23 -71 -23 -148 -1 -124 20 -187 83
-250 94 -94 250 -108 379 -34 44 26 45 30 10 77 -14 18 -15 18 -48 -2 -47 -27
-122 -43 -171 -35 -75 12 -138 93 -139 177 l0 37 206 0 207 0 -7 82 c-14 173
-89 257 -236 264 -36 2 -80 -2 -99 -8z m174 -111 c33 -33 61 -106 51 -133 -7
-18 -296 -21 -296 -3 0 36 30 99 62 131 35 35 43 38 94 38 50 0 60 -4 89 -33z
M18525 11126 c-17 -7 -44 -29 -62 -49 -30 -34 -31 -34 -37 -14 -3 12 -6 32 -6
45 0 21 -3 22 -100 22 l-100 0 0 -35 c0 -29 4 -35 25 -40 14 -3 36 -7 50 -10
l25 -5 0 -226 c0 -171 -3 -226 -12 -229 -7 -2 -30 -6 -50 -10 -35 -5 -38 -8
-38 -40 l0 -35 150 0 150 0 0 35 c0 36 -3 38 -65 47 -19 3 -20 12 -23 191 l-2
189 34 34 c31 31 39 34 94 34 59 0 60 0 66 31 13 69 9 79 -31 79 -21 -1 -52
-7 -68 -14z M19593 11124 c-57 -21 -119 -84 -151 -152 -24 -51 -27 -69 -27
-162 0 -118 16 -166 75 -234 46 -52 102 -78 182 -84 78 -5 145 9 205 44 l42
24 -20 35 c-12 19 -23 35 -24 35 -2 0 -19 -9 -37 -19 -45 -27 -124 -43 -170
-36 -71 12 -128 82 -142 173 l-6 42 205 0 205 0 0 74 c0 120 -42 206 -121 247
-54 27 -160 34 -216 13z m157 -87 c39 -20 70 -74 70 -123 l0 -44 -145 0 c-144
0 -145 0 -145 23 1 36 35 101 69 130 25 21 43 27 79 27 26 0 58 -6 72 -13z
M20790 11124 c-19 -8 -50 -31 -67 -52 l-33 -37 0 32 c0 61 -3 63 -106 63 l-94
0 0 -35 c0 -29 4 -35 25 -40 14 -3 36 -7 50 -10 l25 -5 0 -226 c0 -171 -3
-226 -12 -229 -7 -2 -30 -6 -50 -10 -35 -5 -38 -8 -38 -40 l0 -35 150 0 150 0
0 34 c0 35 -15 46 -67 46 l-23 0 0 193 c1 135 4 197 13 207 27 36 62 50 118
50 l56 0 6 47 c3 27 3 51 0 55 -7 13 -65 8 -103 -8z M21567 11126 c-120 -45
-187 -156 -187 -311 0 -144 46 -238 141 -289 96 -53 257 -44 333 17 24 20 27
26 18 43 -27 46 -26 46 -80 18 -69 -36 -161 -39 -212 -7 -44 27 -78 86 -86
147 l-7 46 207 0 206 0 0 63 c0 123 -47 219 -125 257 -58 28 -156 36 -208 16z
m154 -92 c35 -18 68 -82 69 -131 l0 -33 -144 0 c-80 0 -147 3 -149 8 -12 20
26 102 63 136 34 30 47 36 86 36 25 0 59 -7 75 -16z M24940 11125 c-30 -9 -68
-24 -85 -33 -28 -17 -30 -23 -33 -80 l-3 -62 40 0 c37 0 41 3 49 33 10 42 59
67 130 67 96 0 142 -44 142 -138 l0 -49 -110 -7 c-211 -13 -288 -70 -278 -205
7 -102 75 -160 186 -161 61 0 108 17 162 60 l38 30 7 -40 7 -40 74 0 74 0 0
34 c0 28 -4 35 -22 38 -23 3 -23 5 -28 213 -3 120 -10 221 -17 235 -15 35 -57
75 -101 96 -50 24 -163 28 -232 9z m240 -400 c0 -46 -4 -60 -25 -81 -57 -56
-156 -79 -214 -49 -65 33 -54 119 23 166 25 15 50 19 124 19 l92 0 0 -55z
M26505 11125 c-16 -8 -45 -32 -62 -52 -31 -35 -33 -35 -33 -12 -1 67 -4 69
-106 69 l-94 0 0 -35 c0 -30 4 -35 28 -41 68 -15 62 8 62 -245 l0 -229 -22 0
c-53 0 -68 -11 -68 -46 l0 -34 150 0 150 0 0 35 c0 32 -3 35 -37 40 -21 4 -44
8 -50 10 -20 7 -18 346 2 385 20 39 63 60 124 60 27 0 52 3 54 8 3 4 7 27 8
52 l4 45 -40 3 c-22 1 -53 -5 -70 -13z M27517 11126 c-80 -29 -154 -112 -178
-201 -17 -63 -7 -221 18 -276 25 -55 76 -109 129 -134 88 -41 249 -27 319 29
l28 22 -19 30 c-10 16 -19 30 -20 32 0 1 -24 -9 -52 -24 -63 -33 -159 -38
-209 -11 -41 22 -81 90 -89 150 l-7 47 208 0 208 0 -5 83 c-5 95 -28 156 -79
205 -57 55 -170 77 -252 48z m152 -91 c34 -17 71 -87 71 -133 l0 -32 -144 0
c-80 0 -147 3 -149 8 -12 20 26 102 63 136 34 30 47 36 86 36 25 0 58 -7 73
-15z M28869 11126 c-63 -22 -97 -54 -131 -124 -31 -62 -33 -75 -36 -182 -3
-98 -1 -123 17 -171 38 -100 119 -159 221 -159 58 0 125 24 149 53 21 26 31
20 31 -19 0 -60 -20 -121 -51 -150 -38 -36 -120 -44 -204 -20 -31 10 -58 16
-60 14 -10 -13 -24 -73 -18 -79 19 -17 123 -39 187 -39 131 0 221 67 245 181
7 30 11 181 11 374 l0 325 -50 0 -50 0 0 -41 0 -41 -39 35 c-60 55 -145 71
-222 43z m170 -91 c16 -8 40 -28 55 -45 25 -31 26 -35 26 -172 0 -110 -3 -146
-16 -166 -25 -43 -63 -65 -119 -70 -98 -8 -160 47 -174 155 -18 128 22 258 89
294 42 23 101 24 139 4z M30310 11127 c-25 -7 -64 -22 -85 -33 -39 -21 -40
-22 -43 -83 l-3 -62 43 3 c39 3 43 6 48 33 15 88 227 87 260 -1 6 -14 10 -47
10 -73 l0 -48 -104 -7 c-57 -3 -126 -13 -153 -21 -115 -35 -165 -148 -110
-255 27 -55 69 -80 146 -87 70 -7 117 7 176 53 l45 34 6 -40 7 -40 73 0 74 0
0 34 c0 28 -4 35 -22 38 -23 3 -23 4 -28 219 -5 213 -5 216 -32 256 -37 55
-100 85 -192 90 -39 1 -91 -3 -116 -10z m230 -403 c0 -51 -3 -60 -34 -88 -36
-35 -93 -56 -150 -56 -28 0 -45 7 -67 29 -35 36 -38 77 -7 116 32 41 73 54
171 55 l87 0 0 -56z M31104 11130 c-17 -5 -52 -28 -77 -51 l-47 -41 0 46 0 46
-100 0 -100 0 0 -35 c0 -29 4 -35 25 -40 14 -3 36 -7 50 -10 l25 -5 0 -226 c0
-171 -3 -226 -12 -229 -7 -2 -30 -6 -50 -10 -35 -5 -38 -8 -38 -40 l0 -35 150
0 150 0 0 34 c0 33 -2 35 -42 43 l-43 9 -3 187 c-3 211 0 222 69 258 75 38
175 14 201 -49 6 -15 13 -106 16 -209 5 -200 9 -186 -60 -198 -35 -5 -38 -8
-38 -40 l0 -35 150 0 150 0 0 34 c0 35 -15 46 -67 46 -23 0 -23 1 -23 153 -1
255 -21 332 -99 375 -47 27 -137 37 -187 22z M32468 11125 c-127 -48 -196
-175 -185 -340 8 -130 57 -217 152 -268 33 -18 57 -22 135 -22 84 0 102 3 153
28 31 16 57 33 57 38 0 12 -29 69 -35 69 -2 0 -19 -9 -37 -19 -45 -27 -124
-43 -170 -36 -71 12 -127 81 -143 173 l-7 42 206 0 206 0 0 74 c0 120 -42 206
-121 247 -53 27 -161 34 -211 14z m173 -101 c29 -25 49 -75 49 -119 l0 -35
-145 0 c-144 0 -145 0 -145 23 1 37 35 101 71 131 30 25 39 28 91 24 38 -3 65
-11 79 -24z M12710 11035 l0 -95 50 0 50 0 0 38 c0 61 4 63 128 60 l112 -3
-170 -229 c-151 -203 -170 -234 -170 -268 l0 -38 250 0 250 0 0 90 0 90 -50 0
-50 0 0 -45 0 -45 -130 0 c-121 0 -130 1 -121 18 5 9 82 113 170 231 143 190
161 219 161 253 l0 38 -240 0 -240 0 0 -95z M16140 11095 c0 -29 4 -35 25 -40
14 -3 36 -7 50 -10 l25 -5 0 -226 c0 -171 -3 -226 -12 -229 -7 -2 -30 -6 -50
-10 -35 -5 -38 -8 -38 -40 l0 -35 150 0 150 0 0 34 c0 33 -2 35 -42 43 l-43 9
-3 272 -2 272 -105 0 -105 0 0 -35z M20980 11095 c0 -29 4 -35 25 -40 14 -3
36 -7 50 -10 l25 -5 0 -226 c0 -171 -3 -226 -12 -229 -7 -2 -30 -6 -50 -10
-35 -5 -38 -8 -38 -40 l0 -35 150 0 150 0 0 35 c0 36 -3 38 -65 47 -19 3 -20
12 -23 276 l-2 272 -105 0 -105 0 0 -35z M26720 11035 l0 -95 44 0 c48 0 56 9
56 66 l0 34 115 0 c63 0 115 -3 115 -7 -1 -5 -75 -107 -165 -228 -152 -203
-165 -223 -165 -262 l0 -43 245 0 245 0 0 90 0 90 -44 0 -44 0 -6 -45 -7 -45
-130 0 -129 0 117 158 c64 86 140 189 170 228 44 59 53 78 53 112 l0 42 -235
0 -235 0 0 -95z M27940 11095 c0 -32 3 -35 40 -45 l40 -11 0 -187 c1 -170 3
-192 23 -242 30 -74 84 -112 166 -118 76 -5 124 11 172 59 36 36 39 37 39 17
1 -65 5 -68 96 -68 l84 0 0 34 c0 35 -13 46 -51 46 -18 0 -19 11 -19 275 l0
275 -100 0 -100 0 0 -35 c0 -30 4 -35 28 -41 67 -15 62 2 62 -199 l0 -183 -27
-33 c-15 -17 -42 -38 -60 -45 -45 -19 -123 -18 -152 2 -45 32 -51 67 -51 309
l0 225 -95 0 -95 0 0 -35z M13670 10860 l0 -40 140 0 140 0 0 40 0 40 -140 0
-140 0 0 -40z M4467 9442 l-267 -457 77 -73 c107 -100 283 -247 296 -247 6 0
125 195 264 434 l254 434 -123 126 c-68 69 -145 152 -172 184 -27 31 -51 57
-55 57 -3 0 -126 -206 -274 -458z M4883 9057 c-139 -238 -253 -436 -253 -439
0 -19 475 -328 485 -316 1 2 113 192 248 422 l245 419 -61 40 c-84 54 -236
167 -328 244 -43 34 -79 63 -80 63 -2 0 -118 -195 -256 -433z M9785 9430 c-12
-19 -272 -209 -382 -279 -298 -189 -662 -347 -1007 -436 l-128 -33 -243 -416
c-134 -229 -242 -416 -240 -416 13 0 215 45 315 70 347 88 767 261 1046 431
24 15 101 138 339 546 170 291 310 531 312 536 6 11 -5 9 -12 -3z M5653 9097
c-10 -12 -448 -760 -471 -804 -10 -19 -8 -23 24 -42 82 -49 322 -154 501 -220
l81 -30 237 405 c131 224 233 409 229 414 -5 4 -59 28 -120 53 -114 46 -300
138 -410 201 -47 28 -64 33 -71 23z M6090 8398 c-129 -221 -236 -405 -238
-409 -10 -24 512 -144 719 -165 l64 -6 229 393 c126 217 231 397 233 401 4 9
-7 11 -152 33 -183 27 -460 96 -608 150 -7 3 -107 -158 -247 -397z M8150 8659
c-19 -4 -109 -18 -200 -31 -142 -19 -208 -22 -475 -23 l-310 0 -231 -395 -231
-395 26 -9 c14 -4 166 -9 336 -9 241 -1 342 3 455 16 80 10 154 20 165 23 15
4 90 123 255 406 129 220 239 407 243 414 4 8 7 14 5 13 -2 -1 -19 -5 -38 -10z"/>
<path fill="#880512" stroke="none" d="M6795 15929 c-420 -32 -822 -124 -1205 -276 -1317 -522 -2258 -1668
-2514 -3063 -91 -495 -86 -1035 14 -1531 24 -118 81 -341 86 -336 2 2 -7 59
-21 128 -42 219 -57 357 -62 601 -6 268 5 443 44 673 127 760 488 1449 1038
1983 599 582 1370 932 2204 1003 176 15 579 6 736 -16 440 -61 828 -182 1198
-373 70 -36 127 -70 127 -75 0 -4 -243 -424 -540 -932 l-540 -923 0 -326 0
-326 589 -1008 590 -1007 685 -3 c377 -1 686 0 686 3 0 3 -304 526 -676 1162
-372 636 -679 1164 -681 1172 -2 9 291 529 652 1156 361 627 664 1153 672
1170 l16 29 -71 67 c-144 138 -407 336 -599 452 -536 324 -1082 511 -1703 582
-166 19 -563 27 -725 14z M22520 14680 l0 -140 185 0 185 0 0 140 0 140 -185
0 -185 0 0 -140z M23210 14680 l0 -140 185 0 185 0 0 140 0 140 -185 0 -185 0
0 -140z M20060 14221 c0 -105 2 -120 18 -125 16 -5 179 -36 188 -36 2 0 3
-325 2 -722 l-3 -722 -102 -19 -103 -19 0 -119 0 -119 410 0 410 0 0 119 0
118 -87 17 c-49 10 -96 19 -105 22 -17 5 -18 27 -18 280 l0 274 115 0 115 0
190 -285 c104 -157 190 -287 190 -289 0 -2 -27 -7 -60 -11 l-60 -7 0 -119 0
-119 400 0 401 0 -3 117 -3 117 -30 7 c-16 4 -61 12 -100 19 l-70 11 -270 386
c-148 212 -273 391 -277 397 -6 11 455 637 487 662 8 6 51 16 97 23 130 19
118 5 118 142 l0 119 -395 0 -395 0 0 -120 0 -119 38 -6 c20 -4 44 -7 52 -8 8
-1 14 -7 13 -12 -1 -6 -86 -133 -189 -282 l-187 -273 -88 0 -89 0 0 269 0 268
88 17 c48 10 95 19 105 22 15 5 17 20 17 125 l0 119 -410 0 -410 0 0 -119z
M22050 14221 l0 -119 48 -10 c26 -6 75 -16 109 -22 l62 -12 3 -612 3 -611 27
-72 c35 -98 71 -157 136 -226 92 -96 213 -162 372 -203 114 -29 422 -27 535 4
274 75 456 249 509 489 14 61 16 157 16 651 l0 580 93 17 c50 9 100 19 110 22
15 4 17 18 17 124 l0 119 -415 0 -415 0 0 -119 c0 -105 2 -120 18 -125 16 -5
179 -36 188 -36 2 0 4 -253 4 -563 0 -619 -1 -636 -61 -729 -36 -56 -114 -111
-188 -132 -33 -10 -93 -16 -151 -16 -58 0 -118 6 -151 16 -74 21 -152 76 -188
132 -60 93 -61 110 -61 729 0 310 2 563 4 563 9 0 172 31 189 36 15 5 17 20
17 125 l0 119 -415 0 -415 0 0 -119z M24210 14221 c0 -105 2 -120 18 -125 16
-5 179 -36 188 -36 2 0 3 -325 2 -722 l-3 -722 -102 -19 -103 -19 0 -119 0
-119 415 0 415 0 0 118 0 118 -97 19 c-54 10 -104 20 -110 22 -10 4 -13 69
-13 279 l0 274 410 0 410 0 -2 -277 -3 -278 -102 -18 -103 -19 0 -119 0 -119
415 0 415 0 0 118 0 118 -97 19 c-54 10 -104 20 -110 22 -10 4 -13 158 -13
723 l0 717 63 13 c34 6 83 16 110 22 l47 10 0 119 0 119 -415 0 -415 0 0 -119
c0 -105 2 -120 18 -125 16 -5 179 -36 188 -36 2 0 4 -130 4 -290 l0 -290 -410
0 -410 0 0 289 0 289 93 17 c50 9 100 19 110 22 15 4 17 18 17 124 l0 119
-415 0 -415 0 0 -119z M26410 14221 l0 -119 48 -10 c26 -6 75 -16 110 -22 l62
-13 0 -718 0 -719 -22 -5 c-13 -3 -61 -13 -108 -23 l-85 -17 -3 -118 -3 -117
421 0 421 0 -3 117 -3 118 -85 17 c-47 10 -95 20 -107 23 l-23 5 0 531 c0 292
4 528 8 525 5 -3 188 -305 408 -671 l399 -665 202 0 203 0 0 859 0 858 88 17
c48 10 95 19 105 22 15 5 17 20 17 125 l0 119 -415 0 -415 0 0 -119 0 -119 48
-10 c26 -6 75 -16 110 -22 l62 -13 0 -536 c-1 -475 -2 -534 -15 -516 -9 10
-192 315 -408 677 l-392 657 -312 1 -313 0 0 -119z M3181 10694 c0 -11 3 -14
6 -6 3 7 2 16 -1 19 -3 4 -6 -2 -5 -13z"/>
</g>
</svg>
